<svg width="10" height="7" viewBox="0 0 10 7" fill="none" xmlns="http://www.w3.org/2000/svg">
<g id="Group 4">
<path id="Vector" d="M5.15213 4.49673C5.15213 3.7266 4.78582 3.15733 4.02902 2.94396C4.5812 2.681 4.86917 2.2826 4.86917 1.66291C4.86917 0.441034 3.95568 0.143066 2.90175 0.143066H0V6.27787H2.98301C4.10154 6.27787 5.15213 5.74319 5.15213 4.49673ZM1.35273 1.19033H2.62212C3.11012 1.19033 3.54936 1.32702 3.54936 1.89128C3.54936 2.41221 3.20763 2.62182 2.72422 2.62182H1.35273V1.19033ZM1.35232 5.23602V3.54657H2.82673C3.42225 3.54657 3.79898 3.79411 3.79898 4.42255C3.79898 5.04224 3.34932 5.23602 2.79881 5.23602H1.35232Z" fill="#5C6168"/>
<path id="Vector_2" d="M7.83296 6.39415C8.89731 6.39415 9.58659 5.91615 9.91831 4.90014H8.83813C8.72186 5.27937 8.24261 5.47982 7.87088 5.47982C7.15367 5.47982 6.77694 5.061 6.77694 4.34921H9.99124C10.0929 2.9248 9.29946 1.71085 7.83254 1.71085C6.47439 1.71085 5.55257 2.72852 5.55257 4.06167C5.55257 5.44524 6.42605 6.39415 7.83296 6.39415ZM7.79462 2.63267C8.40931 2.63267 8.71853 2.99273 8.7702 3.58158H6.77861C6.81903 2.99773 7.20785 2.63267 7.79462 2.63267Z" fill="#5C6168"/>
<path id="Vector_3" d="M6.52913 0.465118H9.02456V1.06939H6.52913V0.465118Z" fill="#5C6168"/>
</g>
</svg>
