<svg width="10" height="11" viewBox="0 0 10 11" fill="none" xmlns="http://www.w3.org/2000/svg">
<path id="Vector" d="M5 0.394043C2.24297 0.394043 0 2.63701 0 5.39399C0 8.15097 2.24297 10.3939 5 10.3939C7.75703 10.3939 10 8.15097 10 5.39399C10 2.63701 7.75703 0.394043 5 0.394043ZM8.2583 2.75213C8.81962 3.44308 9.1652 4.31519 9.19394 5.26586C8.15415 5.0506 7.21262 5.07587 6.38146 5.23883C6.23096 4.88689 6.07516 4.55158 5.91792 4.23469C6.82311 3.84475 7.61113 3.34669 8.2583 2.75213ZM7.69505 2.17968C7.05265 2.76605 6.30819 3.2002 5.5459 3.52074C4.98641 2.49759 4.4511 1.72712 4.125 1.28927C4.40737 1.22912 4.69997 1.19684 5 1.19684C6.02528 1.19684 6.96536 1.56688 7.69505 2.17968ZM3.31417 1.55147C3.56042 1.87055 4.14694 2.6695 4.77698 3.80621C3.19354 4.32209 1.65709 4.40901 0.918778 4.41709C1.22652 3.13154 2.12678 2.07446 3.31417 1.55147ZM0.807189 5.22192C0.81511 5.22192 0.822763 5.22198 0.830845 5.22198C1.341 5.22198 2.27567 5.18767 3.37604 4.98702C4.00383 4.87254 4.59914 4.71846 5.15772 4.5275C5.30314 4.81731 5.44769 5.12302 5.58786 5.44344C4.80572 5.69525 4.14614 6.05758 3.62368 6.41735C2.74756 7.02068 2.13379 7.69005 1.79865 8.10392C1.17814 7.37214 0.8028 6.42634 0.8028 5.39399C0.8028 5.33629 0.804834 5.27908 0.807189 5.22192ZM2.37714 8.66722C2.66567 8.30393 3.25295 7.64269 4.10247 7.06248C4.67979 6.66814 5.27707 6.37517 5.89196 6.18287C6.24873 7.10759 6.55331 8.12934 6.7349 9.21425C6.2057 9.45551 5.61858 9.59114 5 9.59114C4.00817 9.59114 3.09624 9.24459 2.37714 8.66722ZM7.47348 8.78197C7.28632 7.78558 7.00722 6.84872 6.68454 5.9925C7.47824 5.8586 8.29855 5.88621 9.14106 6.07546C8.95936 7.18279 8.34318 8.14529 7.47348 8.78197Z" fill="#5C6168"/>
</svg>
